<svg xmlns="http://www.w3.org/2000/svg" width="3440" height="1440" viewBox="0 0 3440 1440" version="1.1"><path d="M 1607.969 455.471 C 1598.532 458.516, 1590.944 468.402, 1589.460 479.588 C 1588.635 485.812, 1590.126 491.494, 1593.984 496.819 C 1598.340 502.832, 1603.908 505.434, 1612.500 505.470 C 1621.218 505.507, 1626.278 502.802, 1629.096 496.595 C 1631.099 492.185, 1631.629 484.507, 1630 483.500 C 1629.429 483.147, 1629 484.022, 1629 485.537 C 1629 491.399, 1622.388 497.736, 1615.275 498.690 C 1602.643 500.384, 1593.785 485.339, 1600.185 473.058 C 1601.458 470.615, 1604.221 467.247, 1606.323 465.574 C 1609.656 462.922, 1611.102 462.483, 1617.588 462.156 C 1624.072 461.828, 1625.732 462.124, 1630.489 464.451 C 1646.185 472.130, 1650.323 489.845, 1640.580 507.650 C 1639.120 510.317, 1633.224 518.125, 1627.478 525 C 1614.988 539.944, 1610.910 547.525, 1610.227 557.074 C 1609.684 564.661, 1610.644 573, 1612.061 573 C 1612.578 573, 1613 569.839, 1613 565.975 C 1613 552.798, 1617.312 544.772, 1634.324 526.286 C 1645.918 513.686, 1649.506 507.902, 1651.386 498.780 C 1652.994 490.981, 1651.992 479.032, 1649.203 472.726 C 1644.343 461.740, 1633.827 455.108, 1620.149 454.403 C 1615.160 454.146, 1610.924 454.517, 1607.969 455.471 M 1691.500 497.693 C 1686.272 499.011, 1682.761 501.551, 1680.252 505.834 C 1675.054 514.703, 1677.534 525.236, 1685.617 528.613 C 1694.413 532.289, 1703.075 527.963, 1702.862 520 C 1702.805 517.899, 1702.573 517.299, 1702.281 518.500 C 1701.518 521.630, 1698.999 523.920, 1695 525.118 C 1690.421 526.490, 1685.797 524.442, 1683.517 520.033 C 1681.516 516.163, 1681.601 514.456, 1684.044 509.409 C 1690.638 495.788, 1713 502.970, 1713 518.708 C 1713 525.540, 1710.240 531.254, 1702.128 541.219 C 1697.831 546.498, 1693.548 552.433, 1692.610 554.409 C 1690.418 559.029, 1689.541 566.800, 1690.850 570 C 1691.751 572.202, 1691.882 571.904, 1691.946 567.500 C 1692.053 560.220, 1695.528 553.776, 1704.827 543.613 C 1718.362 528.821, 1720.716 516.564, 1712.220 505.131 C 1708.466 500.079, 1697.563 496.166, 1691.500 497.693 M 1526.218 582.663 C 1524.413 583.553, 1521.938 585.680, 1520.718 587.390 L 1518.500 590.500 1518.500 754 C 1518.500 910.280, 1518.581 917.698, 1520.334 921.981 C 1523.111 928.763, 1528.391 935.343, 1534.241 939.312 C 1544.683 946.395, 1538.512 946.074, 1658.603 945.772 L 1766.543 945.500 1773.193 942.226 C 1781.509 938.132, 1788.977 930.245, 1792.111 922.247 C 1794.049 917.302, 1794.442 913.957, 1794.931 898.270 L 1795.500 880.041 1834.500 879.765 L 1873.500 879.490 1881.462 876.681 C 1900.980 869.795, 1915.035 854.672, 1919.494 835.760 C 1921.712 826.356, 1921.684 686.525, 1919.463 677.103 C 1915.037 658.328, 1900.804 643.102, 1881.328 636.307 L 1873.500 633.576 1834.383 633.200 L 1795.267 632.824 1794.798 612.537 C 1794.286 590.333, 1793.744 588.130, 1787.680 583.605 C 1785.283 581.815, 1783.167 581.450, 1773.553 581.167 C 1760.300 580.777, 1755.819 582.336, 1751.851 588.719 L 1749.500 592.500 1749 733 L 1748.500 873.500 1745.830 879.196 C 1742.290 886.749, 1735.425 893.430, 1727.201 897.326 L 1720.500 900.500 1659.167 900.787 C 1592.328 901.099, 1590.986 901.006, 1581.450 895.418 C 1575.277 891.800, 1568.527 883.942, 1565.804 877.202 L 1563.500 871.500 1563 731 L 1562.500 590.500 1560.270 587.373 C 1556.624 582.262, 1552.655 580.997, 1540.349 581.023 C 1532.411 581.039, 1528.619 581.480, 1526.218 582.663 M 1795 756.415 L 1795 839 1817.750 838.992 C 1830.263 838.988, 1843.425 838.522, 1847 837.956 C 1860.436 835.830, 1871.467 827.570, 1877.291 815.275 L 1880.500 808.500 1880.786 758.629 C 1881.107 702.521, 1881.151 702.947, 1873.921 692.120 C 1871.482 688.467, 1867.559 684.362, 1864.226 681.976 C 1854.790 675.219, 1851.974 674.706, 1821.750 674.242 L 1795 673.831 1795 756.415" stroke="none" fill="#ebdbb2" fill-rule="evenodd"/><path d="M 1573 629 L 1573 662 1656 662 L 1739 662 1739 629 L 1739 596 1656 596 L 1573 596 1573 629" stroke="none" fill="#b8bb26" fill-rule="evenodd"/><path d="M 1573 705 L 1573 738 1656 738 L 1739 738 1739 705 L 1739 672 1656 672 L 1573 672 1573 705" stroke="none" fill="#fabd2f" fill-rule="evenodd"/><path d="M 1573 781.500 L 1573 814 1656 814 L 1739 814 1739 781.500 L 1739 749 1656 749 L 1573 749 1573 781.500" stroke="none" fill="#fe8019" fill-rule="evenodd"/><path d="M 1573.185 847.750 C 1573.543 874.762, 1573.831 875.903, 1582.244 883.658 C 1590.479 891.248, 1588.854 891.095, 1658.097 890.780 L 1719.500 890.500 1724.964 887.500 C 1727.986 885.841, 1731.886 882.581, 1733.689 880.206 C 1739.148 873.015, 1740 868.238, 1740 844.818 L 1740 824 1656.435 824 L 1572.869 824 1573.185 847.750" stroke="none" fill="#f06b52" fill-rule="evenodd"/><path d="M 0 720 L 0 1440.001 1720.250 1439.750 L 3440.500 1439.500 3440.751 719.750 L 3441.001 0 1720.501 0 L 0 0 0 720 M 0.497 720.500 C 0.497 1116.500, 0.611 1278.350, 0.750 1080.168 C 0.889 881.985, 0.889 557.985, 0.750 360.168 C 0.611 162.350, 0.497 324.500, 0.497 720.500 M 1607.969 455.471 C 1601.677 457.501, 1595.627 463.019, 1592.350 469.717 C 1588.874 476.823, 1588.436 487.404, 1591.388 493 C 1595.970 501.688, 1602.301 505.427, 1612.500 505.470 C 1620.253 505.503, 1625.285 503.266, 1628.503 498.355 C 1630.592 495.167, 1631.755 484.584, 1630.126 483.578 C 1629.399 483.129, 1629 483.823, 1629 485.537 C 1629 491.396, 1622.368 497.756, 1615.311 498.664 C 1602.640 500.295, 1593.795 485.321, 1600.185 473.058 C 1601.458 470.615, 1604.221 467.247, 1606.323 465.574 C 1609.656 462.922, 1611.102 462.483, 1617.588 462.156 C 1624.072 461.828, 1625.732 462.124, 1630.489 464.451 C 1639.656 468.936, 1646 478.555, 1646 487.968 C 1646 493.111, 1643.358 502.575, 1640.430 507.925 C 1639.052 510.441, 1633.205 518.125, 1627.435 525 C 1614.773 540.087, 1610.933 547.211, 1610.239 556.897 C 1609.686 564.636, 1610.632 573, 1612.061 573 C 1612.578 573, 1613 569.920, 1613 566.157 C 1613 552.896, 1617.487 544.504, 1634.240 526.431 C 1645.729 514.037, 1649.493 507.967, 1651.386 498.780 C 1653.179 490.081, 1651.962 478.486, 1648.516 471.443 C 1645.335 464.941, 1638.552 458.733, 1632.195 456.505 C 1625.551 454.176, 1613.567 453.665, 1607.969 455.471 M 1689.500 498.326 C 1681.376 501.505, 1677.651 506.895, 1677.601 515.545 C 1677.538 526.377, 1688.575 533.374, 1698.020 528.490 C 1701.719 526.577, 1703.023 524.133, 1702.914 519.316 C 1702.831 515.647, 1702.796 515.608, 1701.983 518.314 C 1700.769 522.360, 1699.253 523.844, 1695.044 525.105 C 1690.090 526.589, 1685.436 524.288, 1683.365 519.330 C 1681.473 514.803, 1682.342 510.819, 1686.172 506.457 C 1691.247 500.677, 1700.156 500.564, 1706.572 506.198 C 1716.569 514.975, 1715.290 525.050, 1702.128 541.219 C 1691.423 554.369, 1688.839 560.521, 1690.563 568.750 C 1691.342 572.464, 1691.356 572.441, 1692.103 566.351 C 1693.121 558.047, 1695.626 553.554, 1704.568 543.992 C 1708.733 539.538, 1713.230 533.555, 1714.561 530.697 C 1720.913 517.053, 1714.250 500.935, 1701.090 498.113 C 1694.849 496.774, 1693.398 496.801, 1689.500 498.326 M 1525.984 582.852 C 1524.068 583.870, 1521.487 586.187, 1520.250 587.999 L 1518 591.296 1518 752.966 C 1518 892.967, 1518.199 915.307, 1519.484 919.633 C 1521.534 926.536, 1527.852 934.976, 1534.187 939.274 C 1544.690 946.400, 1538.449 946.074, 1658.581 945.772 L 1766.500 945.500 1772.175 942.840 C 1778.994 939.643, 1786.197 933.226, 1789.726 927.205 C 1793.766 920.310, 1794.967 913.144, 1794.984 895.822 L 1795 880.144 1834.250 879.805 L 1873.500 879.467 1881.500 876.692 C 1900.774 870.007, 1915.045 854.634, 1919.494 835.760 C 1921.712 826.356, 1921.684 686.525, 1919.463 677.103 C 1915.037 658.328, 1900.804 643.102, 1881.328 636.307 L 1873.500 633.576 1834.390 633.200 L 1795.279 632.824 1794.775 611.832 C 1794.225 588.925, 1794.093 588.402, 1787.619 583.562 C 1785.291 581.822, 1783.089 581.448, 1773.509 581.166 C 1760.090 580.771, 1756.330 582.033, 1752.161 588.333 L 1749.500 592.353 1749 732.927 L 1748.500 873.500 1745.830 879.196 C 1742.290 886.749, 1735.425 893.430, 1727.201 897.326 L 1720.500 900.500 1659.167 900.787 C 1592.328 901.099, 1590.986 901.006, 1581.450 895.418 C 1575.277 891.800, 1568.527 883.942, 1565.804 877.202 L 1563.500 871.500 1563 731 L 1562.500 590.500 1560.270 587.373 C 1556.631 582.271, 1552.653 581, 1540.333 581 C 1531.680 581, 1528.760 581.377, 1525.984 582.852 M 1573 629 L 1573 662 1656 662 L 1739 662 1739 629 L 1739 596 1656 596 L 1573 596 1573 629 M 1573 705 L 1573 738 1656 738 L 1739 738 1739 705 L 1739 672 1656 672 L 1573 672 1573 705 M 1795 756.596 L 1795 839.192 1821.750 838.755 C 1842.930 838.409, 1849.554 837.976, 1853.564 836.675 C 1861.241 834.185, 1869.607 827.675, 1874.138 820.665 C 1881.148 809.820, 1881.106 810.237, 1880.786 754.348 L 1880.500 704.454 1877.181 697.715 C 1871.252 685.675, 1860.531 677.486, 1847.566 675.094 C 1844.303 674.493, 1831.140 674, 1818.316 674 L 1795 674 1795 756.596 M 1573 781.500 L 1573 814 1656 814 L 1739 814 1739 781.500 L 1739 749 1656 749 L 1573 749 1573 781.500 M 1573.185 847.750 C 1573.543 874.762, 1573.831 875.903, 1582.244 883.658 C 1590.479 891.248, 1588.854 891.095, 1658.097 890.780 L 1719.500 890.500 1724.964 887.500 C 1727.986 885.841, 1731.886 882.581, 1733.689 880.206 C 1739.148 873.015, 1740 868.238, 1740 844.818 L 1740 824 1656.435 824 L 1572.869 824 1573.185 847.750" stroke="none" fill="#282828" fill-rule="evenodd"/></svg>